<svg xmlns="http://www.w3.org/2000/svg" width="90" height="50" viewBox="0 0 90 50">
  <path fill="#f3aa00" d="M 32.841797 0 C 26.724641 -0.027 22.854777 4.5129906 23.101562 12.150391 C 23.348347 19.787791 26.969185 22.595372 32.820312 22.576172 C 38.67143 22.557172 42.177729 18.395522 42.167969 11.357422 C 42.158069 4.3193219 38.958962 0.0275 32.841797 0 z M 57.136719 0 C 51.019554 0.0275 47.820447 4.3193219 47.810547 11.357422 C 47.800788 18.395522 51.307076 22.557172 57.158203 22.576172 C 63.00932 22.595372 66.630168 19.787791 66.876953 12.150391 C 67.123738 4.5129906 63.253884 -0.027 57.136719 0 z M 32.716797 4.3828125 C 37.261853 4.4688125 37.65976 7.8670812 37.810547 11.613281 C 37.961324 15.359481 37.273383 18.257716 32.802734 18.103516 C 28.332066 17.949316 27.965019 15.624466 27.798828 11.884766 C 27.632657 8.1450656 28.171752 4.2968125 32.716797 4.3828125 z M 57.261719 4.3828125 C 61.806775 4.2968125 62.345878 8.1450656 62.179688 11.884766 C 62.013507 15.624466 61.646439 17.949316 57.175781 18.103516 C 52.705122 18.257716 52.017192 15.359481 52.167969 11.613281 C 52.318766 7.8670812 52.716674 4.4688125 57.261719 4.3828125 z M 32.841797 27.421875 C 26.724641 27.394875 22.854778 31.934766 23.101562 39.572266 C 23.348347 47.209666 26.969185 50.0192 32.820312 50 C 38.67143 49.981 42.177729 45.81935 42.167969 38.78125 C 42.158069 31.74315 38.958962 27.449275 32.841797 27.421875 z M 32.716797 31.806641 C 37.261853 31.892641 37.65976 35.288956 37.810547 39.035156 C 37.961324 42.781256 37.273383 45.679691 32.802734 45.525391 C 28.332066 45.371191 27.965019 43.046341 27.798828 39.306641 C 27.632657 35.566941 28.171752 31.720741 32.716797 31.806641 z " />
  <path fill="#ff6600" d="M 76.644531 0.66601562 C 75.22973 0.65993281 73.851432 0.66886875 72.527344 0.69921875 C 72.588134 5.3328188 72.702148 17.039563 72.595703 21.914062 C 74.145126 21.839063 75.532651 21.8595 77.173828 21.8125 C 76.909833 16.9398 76.871996 9.9238031 77.054688 5.0332031 C 80.294065 5.0542031 82.701304 4.9133813 85.652344 5.0507812 C 85.755624 9.0054812 85.552814 17.407638 85.490234 21.835938 C 87.334334 21.866937 88.148146 21.898188 89.916016 21.867188 C 90.049016 16.428687 89.8212 7.0154281 90 0.92382812 C 85.473892 0.83390313 80.888935 0.68426406 76.644531 0.66601562 z M 13.132812 0.66992188 L 13.132812 0.671875 C 10.534297 2.907675 7.622315 5.1808969 3.953125 8.7167969 C 3.871215 5.7153969 3.8463325 2.8428781 3.9609375 0.76757812 C 2.2900475 0.76757812 1.215136 0.767 0 0.75 C 0.06286 5.7462 0.12454688 16.127262 0.12304688 21.914062 L 4.3789062 21.914062 C 4.3339063 20.027162 4.2441978 16.912031 4.1523438 14.519531 C 4.1543437 14.519531 4.1571562 14.519766 4.1601562 14.509766 C 4.5130253 14.037066 4.9825925 13.486613 5.5390625 12.882812 C 7.3218195 14.710712 10.986525 18.569519 14.5625 21.886719 C 16.945867 21.866719 18.760736 21.856978 20.835938 21.767578 C 16.390009 18.244178 12.084489 14.3364 8.4804688 9.9375 C 12.555836 6.0874 17.927231 1.7173313 19.910156 0.70703125 C 17.609701 0.71703125 15.216038 0.63492188 13.132812 0.66992188 z M 53.931641 27.429688 C 53.419484 27.420185 52.891543 27.421144 52.347656 27.433594 L 49.041016 27.433594 C 49.132786 32.209694 49.046635 43.447647 48.904297 49.998047 C 50.790266 50.008047 52.15532 49.983469 53.800781 49.980469 C 53.699927 48.825869 53.643202 45.280197 53.611328 43.529297 C 60.094487 43.651582 65.762765 40.825237 65.794922 35.34375 C 65.794922 35.34375 65.794922 35.341797 65.794922 35.341797 C 65.712936 30.186314 61.61299 27.5722 53.931641 27.429688 z M 20.576172 28.197266 C 13.867386 28.458066 5.743634 28.451584 0.265625 28.208984 C 0.247565 29.625584 0.28215287 31.042384 0.26367188 32.458984 C 3.4312989 32.414984 4.7966775 32.402438 8.2265625 32.398438 C 8.3627935 38.731437 8.4205403 45.560331 8.1601562 49.207031 C 9.5121943 49.207031 11.11245 49.231609 12.662109 49.224609 C 12.540039 42.363209 12.466957 37.399284 12.558594 32.396484 C 16.30523 32.396484 17.763388 32.40925 20.525391 32.40625 C 20.543151 30.99805 20.558312 29.609272 20.576172 28.201172 L 20.576172 28.197266 z M 89.835938 28.197266 C 83.127148 28.458066 78.181134 28.451584 72.703125 28.208984 C 72.662665 35.719784 72.763049 39.488731 72.701172 49.207031 C 74.05322 49.207031 75.653466 49.231609 77.203125 49.224609 C 77.081065 42.363209 77.007983 37.399284 77.099609 32.396484 C 80.846254 32.396484 87.021203 32.40925 89.783203 32.40625 C 89.801003 30.99815 89.818038 29.609372 89.835938 28.201172 L 89.835938 28.197266 z M 53.708984 31.271484 C 53.712884 31.271584 53.716453 31.271484 53.720703 31.271484 C 57.431852 31.324484 60.937569 31.688275 60.939453 35.359375 C 60.941453 38.937575 56.410998 39.310634 53.583984 39.365234 C 53.592884 36.734434 53.641696 33.936184 53.708984 31.271484 z " />
</svg>